<mxfile host="65bd71144e">
    <diagram id="_oKZsMZIsiqT3BplyuRf" name="Page-1">
        <mxGraphModel dx="885" dy="771" grid="1" gridSize="10" guides="1" tooltips="1" connect="1" arrows="1" fold="1" page="1" pageScale="1" pageWidth="827" pageHeight="1169" math="0" shadow="0">
            <root>
                <mxCell id="0"/>
                <mxCell id="1" parent="0"/>
                <mxCell id="4" value="" style="edgeStyle=orthogonalEdgeStyle;rounded=0;orthogonalLoop=1;jettySize=auto;html=1;" edge="1" parent="1" source="2" target="3">
                    <mxGeometry relative="1" as="geometry"/>
                </mxCell>
                <mxCell id="2" value="Keuze" style="shape=step;perimeter=stepPerimeter;whiteSpace=wrap;html=1;fixedSize=1;size=10;fillColor=#10739E;strokeColor=none;fontSize=17;fontStyle=1;align=center;" vertex="1" parent="1">
                    <mxGeometry x="310" y="530" width="200" height="30" as="geometry"/>
                </mxCell>
                <mxCell id="3" value="&lt;font color=&quot;#000000&quot;&gt;Steen&lt;br&gt;Papier&lt;br&gt;Schaar&lt;br&gt;&lt;br&gt;&lt;/font&gt;" style="shape=rect;fillColor=#B1DDF0;strokeColor=none;fontSize=12;html=1;whiteSpace=wrap;align=left;verticalAlign=top;spacing=5;" vertex="1" parent="1">
                    <mxGeometry x="310" y="570" width="190" height="120" as="geometry"/>
                </mxCell>
            </root>
        </mxGraphModel>
    </diagram>
</mxfile>